<?xml version="1.0" encoding="UTF-8"?>
<svg id="Layer_2" data-name="Layer 2" xmlns="http://www.w3.org/2000/svg" viewBox="0 0 374.27 433.06">
  <defs>
    <style>
      .cls-1 {
        fill: #58595b;
      }

      .cls-1, .cls-2 {
        stroke-width: 0px;
      }

      .cls-2 {
        fill: #be1e2d;
      }
    </style>
  </defs>
  <g id="Layer_1-2" data-name="Layer 1">
    <g>
      <g>
        <path class="cls-2" d="M78.06,348.2c.11-.04.22-.08.33-.11,2.42-.76,4.9-1.3,7.41-1.65-4.59-32.78-.08-64.33,11.13-95.21,12.73-35.05,34.25-63.22,67.39-83.55-6.64,8.58-13.12,15.66-18.07,23.68-5.11,8.28-9.7,17.15-12.87,26.34-14.14,41.06-16.63,82.68-9.69,124.32l60.44-35.97c-6.64-42.67,10.29-80.87,47.43-103.81,39.62-24.47,95.2-23.84,126.92,14.94.36.44.96.68,1.9,1.33,11.32-17.97,17.1-37,12-57.88-6.8-27.82-27.48-41.86-53.13-50.57,0-2.95,0-5.7,0-8.46-.1-29.16-12.78-47.8-39.93-58.53-3.96-1.56-8.01-2.93-12.11-4.07-27.11-7.53-55.05-9.04-82.87-11.42-42.71-3.65-85.63-6.36-126.04-27.58,6.67,32.19,29.7,47.92,56.46,62.14-35.9,2.64-68.34,11.76-99.47,25.94-4.09,1.86-6.53,4.26-7.2,8.71-2.43,16.01-5.8,31.92-7.26,48.01-1.94,21.42-.43,42.83,3.92,65.38,41.46-60.66,94.44-99.69,169.61-100.44-5.68,2.61-11.86,4.24-17.65,6.77-68.49,29.89-111.73,81.28-130.07,153.64-.65,2.57-.08,5.98,1.12,8.42,10.74,21.99,24.53,41.95,41.08,59.97,3.01,3.28,6.11,6.49,9.23,9.67Z"/>
        <path class="cls-2" d="M205.34,362.6l-7.4,4.41-29.73,17.68-21.33,12.71c3.06,1.33,6.9,2.99,11.84,5.37.58.28,1.18.5,1.77.75,29.38,12.29,59.93,19.24,93.22,20.51-5.1-5.51-9.19-9.81-13.15-14.22-13.27-14.78-25.39-30.28-35.21-47.2Z"/>
      </g>
      <path class="cls-1" d="M111.47,364.21c49.09-29.22,98.16-58.42,147.26-87.64-.07-.42-.11-.76-.18-1.1-1.31-6.27-1.48-12.57-.38-18.89.73-4.21,1.89-8.28,3.69-12.18,1.87-4.05,4.12-7.85,7.04-11.22,9.09-10.5,20.58-16.15,34.46-16.86,4.4-.23,8.75.25,13.06,1.24,3.78.87,7.41,2.15,10.87,3.88,1.94.97,3.78,2.14,5.65,3.23.22.13.4.33.65.55-1.07.89-2.28,1.45-3.41,2.13-1.13.69-2.28,1.37-3.42,2.05-1.18.7-2.36,1.41-3.54,2.11-1.14.68-2.29,1.36-3.43,2.04-1.14.68-2.29,1.36-3.43,2.04-1.14.68-2.28,1.36-3.43,2.04-1.18.7-2.36,1.4-3.54,2.11-1.14.68-2.29,1.36-3.43,2.04-1.14.68-2.29,1.35-3.43,2.03-1.14.68-2.28,1.37-3.42,2.05-1.14.68-2.29,1.36-3.43,2.04-1.18.7-2.36,1.4-3.55,2.11-1.14.68-2.28,1.36-3.43,2.04-1.14.68-2.28,1.36-3.47,2.06,0,.23,0,.44.02.65,1.14,8.07,2.3,16.15,3.43,24.22.1.72.4,1.2.96,1.63,5.87,4.51,11.71,9.04,17.57,13.56.42.32.86.61,1.3.92,1.41-.67,2.7-1.45,4.01-2.18,1.32-.73,2.63-1.48,3.94-2.22,1.31-.74,2.63-1.48,3.94-2.22,1.31-.74,2.63-1.47,3.94-2.21,1.31-.74,2.63-1.47,3.94-2.21,1.35-.76,2.7-1.53,4.05-2.29,1.31-.74,2.63-1.48,3.94-2.21,1.31-.74,2.63-1.47,3.95-2.21,1.31-.74,2.62-1.49,3.94-2.23,1.31-.74,2.63-1.48,3.94-2.21,1.31-.74,2.62-1.49,3.95-2.21,1.31-.72,2.57-1.54,4.05-2.23.03.4.08.69.07.97-.08,4.01-.72,7.93-1.75,11.8-1.25,4.71-3.16,9.13-5.79,13.22-7.38,11.47-17.77,18.61-31.13,21.34-6.42,1.31-12.86,1.16-19.27-.18-3.67-.76-7.19-1.95-10.59-3.49-3.72-1.7-7.2-3.82-10.41-6.37-.17-.14-.35-.27-.6-.46-.37.2-.77.39-1.14.61-8.95,5.33-17.91,10.66-26.86,15.99-10.06,5.99-20.12,11.97-30.18,17.95-9.03,5.37-18.05,10.76-27.09,16.13-9.91,5.9-19.82,11.78-29.73,17.68-7.16,4.26-14.32,8.53-21.48,12.8-2.97,1.77-5.95,3.54-8.92,5.31-.42.25-.83.51-1.29.8,0,.35,0,.69.03,1.03.44,4.18.2,8.32-.73,12.42-.6,2.64-1.49,5.19-2.68,7.64-1.66,3.42-3.75,6.55-6.45,9.21-7.56,7.47-16.67,10.83-27.28,10.08-4.2-.3-8.22-1.37-12.05-3.1-5.08-2.29-9.48-5.53-13.14-9.74-5.39-6.19-8.66-13.36-9.61-21.53-.82-7.04.22-13.82,3.3-20.2,4.34-9.01,11.34-15.06,20.89-18.08,5.52-1.74,11.15-1.93,16.82-.83,3.95.76,7.69,2.1,11.18,4.12.38.22.79.39,1.23.6ZM92.29,424.82c2.67-1.35,5.27-2.67,7.88-3.99,2.61-1.32,5.24-2.61,7.83-3.96,2.59-1.34,5.24-2.56,7.79-4,.13-4.6.28-9.11.38-13.62.1-4.55.28-9.11.32-13.64-.39-.28-.71-.52-1.03-.75-3.22-2.19-6.45-4.37-9.68-6.56-3.7-2.51-7.4-5.02-11.11-7.53-.32-.22-.68-.38-1.01-.57-7.82,3.96-15.57,7.89-23.35,11.83-.03.44-.06.83-.07,1.23-.2,7.17-.4,14.34-.59,21.52-.04,1.33-.05,2.66-.1,3.98-.02.45.11.77.5,1,.19.11.37.24.55.37,4.47,3.03,8.95,6.06,13.42,9.09,2.71,1.84,5.42,3.68,8.27,5.61Z"/>
    </g>
  </g>
</svg>