<?xml version="1.0" encoding="UTF-8"?>
<svg id="Layer_1" data-name="Layer 1" xmlns="http://www.w3.org/2000/svg" xmlns:xlink="http://www.w3.org/1999/xlink" viewBox="0 0 612 792">
  <defs>
    <style>
      .cls-1 {
        fill: url(#linear-gradient-12);
      }

      .cls-1, .cls-2, .cls-3, .cls-4, .cls-5, .cls-6, .cls-7, .cls-8, .cls-9, .cls-10, .cls-11, .cls-12, .cls-13, .cls-14, .cls-15, .cls-16, .cls-17, .cls-18, .cls-19, .cls-20, .cls-21, .cls-22, .cls-23, .cls-24, .cls-25, .cls-26, .cls-27, .cls-28 {
        stroke-width: 0px;
      }

      .cls-2 {
        fill: url(#linear-gradient);
      }

      .cls-3 {
        fill: url(#White_Black-7);
      }

      .cls-4 {
        fill: url(#White_Black-3);
      }

      .cls-5 {
        fill: url(#linear-gradient-6);
      }

      .cls-6 {
        fill: #667274;
        opacity: .5;
      }

      .cls-7 {
        fill: url(#White_Black-4);
      }

      .cls-8 {
        fill: url(#White_Black-5);
      }

      .cls-9 {
        fill: url(#linear-gradient-15);
      }

      .cls-10 {
        fill: url(#linear-gradient-11);
      }

      .cls-11 {
        fill: url(#linear-gradient-5);
      }

      .cls-12 {
        fill: url(#White_Black-2);
      }

      .cls-13 {
        fill: url(#White_Black-6);
      }

      .cls-14 {
        fill: url(#linear-gradient-13);
      }

      .cls-15 {
        fill: url(#linear-gradient-16);
      }

      .cls-16 {
        fill: #9fcc3e;
      }

      .cls-17 {
        fill: url(#White_Black);
      }

      .cls-18 {
        fill: #fff;
      }

      .cls-29 {
        opacity: .3;
      }

      .cls-19 {
        fill: url(#linear-gradient-14);
      }

      .cls-20 {
        fill: url(#linear-gradient-2);
      }

      .cls-21 {
        fill: url(#linear-gradient-7);
      }

      .cls-22 {
        fill: url(#linear-gradient-3);
      }

      .cls-23 {
        fill: #231f20;
      }

      .cls-24 {
        fill: #9fcc3d;
      }

      .cls-25 {
        fill: url(#linear-gradient-9);
      }

      .cls-26 {
        fill: url(#linear-gradient-8);
      }

      .cls-27 {
        fill: url(#linear-gradient-10);
      }

      .cls-28 {
        fill: url(#linear-gradient-4);
      }
    </style>
    <linearGradient id="White_Black" data-name="White, Black" x1="46.23" y1="468.11" x2="219.22" y2="468.11" gradientUnits="userSpaceOnUse">
      <stop offset="0" stop-color="#fff"/>
      <stop offset="1" stop-color="#231f20"/>
    </linearGradient>
    <linearGradient id="White_Black-2" data-name="White, Black" x1="207.59" x2="380.58" xlink:href="#White_Black"/>
    <linearGradient id="White_Black-3" data-name="White, Black" x1="366.11" x2="539.09" xlink:href="#White_Black"/>
    <linearGradient id="linear-gradient" x1="77.06" y1="630.31" x2="77.61" y2="576.59" gradientUnits="userSpaceOnUse">
      <stop offset=".14" stop-color="#130c0e" stop-opacity="0"/>
      <stop offset=".8" stop-color="#130c0e" stop-opacity=".65"/>
      <stop offset=".82" stop-color="#130c0e" stop-opacity=".7"/>
      <stop offset="1" stop-color="#130c0e" stop-opacity=".95"/>
    </linearGradient>
    <linearGradient id="linear-gradient-2" x1="137.54" y1="630.93" x2="138.08" y2="577.21" xlink:href="#linear-gradient"/>
    <linearGradient id="linear-gradient-3" x1="193.83" y1="631.51" x2="194.38" y2="577.78" xlink:href="#linear-gradient"/>
    <linearGradient id="linear-gradient-4" x1="243.67" y1="632.01" x2="244.22" y2="578.29" xlink:href="#linear-gradient"/>
    <linearGradient id="linear-gradient-5" x1="299.54" y1="632.58" x2="300.09" y2="578.86" xlink:href="#linear-gradient"/>
    <linearGradient id="linear-gradient-6" x1="355.08" y1="633.15" x2="355.63" y2="579.43" xlink:href="#linear-gradient"/>
    <linearGradient id="linear-gradient-7" x1="410.95" y1="633.72" x2="411.49" y2="580" xlink:href="#linear-gradient"/>
    <linearGradient id="linear-gradient-8" x1="467.06" y1="634.29" x2="467.61" y2="580.57" xlink:href="#linear-gradient"/>
    <linearGradient id="White_Black-4" data-name="White, Black" x1="108.13" y1="196.18" x2="456.1" y2="196.18" xlink:href="#White_Black"/>
    <linearGradient id="White_Black-5" data-name="White, Black" x1="121.36" y1="179.18" x2="217.74" y2="179.18" xlink:href="#White_Black"/>
    <linearGradient id="White_Black-6" data-name="White, Black" x1="211.26" y1="179.18" x2="307.64" y2="179.18" xlink:href="#White_Black"/>
    <linearGradient id="White_Black-7" data-name="White, Black" x1="299.58" y1="179.18" x2="395.96" y2="179.18" xlink:href="#White_Black"/>
    <linearGradient id="linear-gradient-9" x1="144.77" y1="280.43" x2="145.16" y2="242.08" xlink:href="#linear-gradient"/>
    <linearGradient id="linear-gradient-10" x1="187.93" y1="280.87" x2="188.33" y2="242.52" xlink:href="#linear-gradient"/>
    <linearGradient id="linear-gradient-11" x1="228.12" y1="281.28" x2="228.51" y2="242.93" xlink:href="#linear-gradient"/>
    <linearGradient id="linear-gradient-12" x1="263.69" y1="281.64" x2="264.08" y2="243.3" xlink:href="#linear-gradient"/>
    <linearGradient id="linear-gradient-13" x1="303.57" y1="282.05" x2="303.96" y2="243.7" xlink:href="#linear-gradient"/>
    <linearGradient id="linear-gradient-14" x1="343.21" y1="282.46" x2="343.6" y2="244.11" xlink:href="#linear-gradient"/>
    <linearGradient id="linear-gradient-15" x1="383.09" y1="282.86" x2="383.48" y2="244.51" xlink:href="#linear-gradient"/>
    <linearGradient id="linear-gradient-16" x1="423.14" y1="283.27" x2="423.53" y2="244.92" xlink:href="#linear-gradient"/>
  </defs>
  <path class="cls-18" d="M438.28,634.31c-1.24,0-2.48-.13-3.69-.38-1.21.26-2.44.38-3.67.38h-48.31c-1.28,0-2.55-.14-3.8-.41-1.24.27-2.5.41-3.77.41h-17.14c-2.38,0-4.77-.49-6.98-1.42-2.22.94-4.59,1.42-7.05,1.42h-17.14c-.78,0-1.57-.05-2.34-.16-.7.09-1.41.13-2.12.13h-17.18c-2.91,0-5.77-.71-8.34-2.05-2.58,1.36-5.47,2.08-8.43,2.08h-17.14c-1.27,0-2.54-.13-3.78-.4-1.23.27-2.49.4-3.75.4h-48.35c-4.33,0-8.53-1.58-11.78-4.4-3.24,2.82-7.45,4.4-11.82,4.4h-17.14c-3.19,0-6.29-.84-9.05-2.45-2.75,1.61-5.87,2.45-9.11,2.45h-48.35c-1.28,0-2.55-.14-3.8-.41-1.24.27-2.5.41-3.77.41h-17.1c-.77,0-1.54-.05-2.29-.15-.75.1-1.52.15-2.29.15h-9.49c-1.34,0-2.67-.15-3.97-.44-1.3.29-2.63.44-3.97.44h-17.14c-5.66,0-11.05-2.71-14.43-7.26-3.37-4.54-4.41-10.49-2.79-15.9l5.28-17.51c-1.65-4.59-1.33-9.7.85-14.07-.57-.52-1.08-1.05-1.55-1.59-4.21-4.84-6.07-11.25-5.09-17.58l22.03-140.28c-1.46-1.23-2.76-2.65-3.86-4.24-4.15-6-5.04-13.61-2.38-20.36l12.15-30.95c3.31-8.38,11.26-13.79,20.25-13.79h142.69c3.18,0,6.36.73,9.28,2.11,2.91-1.38,6.1-2.11,9.26-2.11h142.81c2.7,0,5.35.5,7.89,1.49,2.54-.99,5.21-1.49,7.94-1.49h142.69c6.33,0,12.34,2.75,16.47,7.54,4.18,4.8,6.01,11.2,5.01,17.55l-29.76,191.19c-1.19,7.65-6.25,13.97-13.34,16.8-.13,1.29-.39,2.53-.77,3.69l-3.11,9.44c-.42,1.29-.99,2.53-1.69,3.68-.12,1.39-.4,2.78-.83,4.12l-5.6,17.13c-2.42,7.41-9.29,12.39-17.09,12.39h-48.31ZM285.15,564.07l-2.52-11.38-1.78,11.38h4.31Z"/>
  <path class="cls-23" d="M552.25,359.63c-3.75-4.35-9.21-6.85-14.96-6.85h-142.69c-2.81,0-5.49.59-7.94,1.66-2.46-1.07-5.14-1.66-7.89-1.66h-142.81c-3.29,0-6.46.85-9.26,2.34-2.83-1.51-6-2.34-9.28-2.34H74.73c-8.16,0-15.38,4.91-18.38,12.52l-12.16,30.95c-2.42,6.13-1.62,13.03,2.16,18.48,1.23,1.76,2.71,3.29,4.38,4.54l-22.21,141.43c-.89,5.75.79,11.56,4.62,15.96.79.91,1.67,1.71,2.59,2.45-2.73,4.35-3.23,9.68-1.29,14.45l-5.48,18.16c-1.45,4.82-.52,10.1,2.47,14.13,3,4.04,7.79,6.45,12.83,6.45h17.14c1.35,0,2.68-.17,3.97-.5,1.28.33,2.62.5,3.97.5h9.49c.77,0,1.54-.05,2.29-.16.76.11,1.52.16,2.29.16h17.1c1.28,0,2.54-.15,3.77-.46,1.24.3,2.51.46,3.8.46h48.35c3.36,0,6.51-1.02,9.11-2.82,2.64,1.81,5.79,2.82,9.05,2.82h17.14c4.63,0,8.86-1.95,11.81-5.19,3,3.28,7.3,5.19,11.79,5.19h48.35c1.27,0,2.53-.15,3.75-.45,1.23.3,2.5.45,3.78.45h17.14c3.07,0,5.96-.85,8.42-2.38,2.46,1.51,5.33,2.35,8.35,2.35h17.18c.71,0,1.42-.05,2.13-.15.77.12,1.55.17,2.33.17h17.14c2.51,0,4.91-.57,7.05-1.62,2.15,1.05,4.54,1.62,6.98,1.62h17.14c1.27,0,2.54-.15,3.77-.46,1.24.3,2.51.46,3.8.46h48.3c1.24,0,2.47-.15,3.67-.43,1.21.29,2.44.43,3.69.43h48.31c6.93,0,13.03-4.43,15.19-11.01l5.61-17.13c.44-1.35.7-2.74.77-4.13.73-1.13,1.32-2.36,1.75-3.67l3.11-9.43c.48-1.47.72-2.99.76-4.5,6.87-2.26,12.1-8.16,13.27-15.68l29.76-191.2c.9-5.77-.76-11.59-4.55-15.93ZM459.35,424.13h.54l-1.76,11.3h-.54l1.76-11.3ZM300.71,424.13h.66l-1.74,11.15h-.66l1.74-11.15ZM139.48,424.13h.54l-1.76,11.3h-.54l1.76-11.3ZM117.15,566.07l9.06-57.15h.57l-8.12,51.74c-.28,1.81-.29,3.63-.07,5.4h-1.3s-.09,0-.13,0ZM278.48,566.2l3.8-24.27,5.35,24.14h-7.24c-.64,0-1.28.05-1.91.13ZM437.02,566.07l9.06-57.14h.56l-8.12,51.74c-.28,1.81-.29,3.63-.07,5.4h-1.43Z"/>
  <path class="cls-23" d="M503.51,577.83c-1.32-1.82-3.43-2.9-5.68-2.9h-49.7c-1.26,0-2.47.35-3.53.97-1.01-.55-2.16-.86-3.34-.86h-17.1c-3.09,0-5.81,2.02-6.71,4.98l-.37,1.21c-.14-1.2-.59-2.36-1.33-3.36-1.32-1.78-3.41-2.83-5.63-2.83h-18.32c-1.13,0-2.23.28-3.21.78-.98-.51-2.08-.78-3.21-.78h-17.14c-3.09,0-5.82,2.02-6.71,4.98l-.31,1.02c-.16-1.13-.6-2.22-1.3-3.16-1.32-1.79-3.41-2.84-5.63-2.84h-18.37c-1.07,0-2.11.25-3.05.7-.94-.45-1.98-.7-3.05-.7h-49.45c-1.13,0-2.23.28-3.21.78-.98-.51-2.08-.78-3.21-.78h-49.45c-1.06,0-2.09.25-3.02.69-.93-.45-1.97-.69-3.03-.69h-48.88c-.48,0-.95.07-1.41.16-.47-.1-.96-.16-1.45-.16h-49.45c-1.11,0-2.18.26-3.15.75-.96-.48-2.04-.75-3.14-.75,0,0-25.28-.03-25.29-.03-1.76,0-3.42.66-4.68,1.8-1.24-1.12-2.89-1.8-4.68-1.8h-9.57c-.21,0-.42,0-.62.03h-12.71c-2.2,0-4.27,1.03-5.59,2.78l-4.17,5.53c-1.6,2.12-1.86,4.97-.68,7.34.31.63.71,1.2,1.18,1.69l-6.61,21.92c-.64,2.12-.24,4.42,1.08,6.2,1.32,1.78,3.41,2.83,5.62,2.83h17.14c1.45,0,2.83-.45,3.97-1.23,1.13.78,2.5,1.23,3.97,1.23h9.49c.79,0,1.57-.13,2.29-.38.73.25,1.5.38,2.29.38h17.1c1.37,0,2.67-.42,3.77-1.12,1.12.72,2.43,1.12,3.8,1.12h48.35c3.09,0,5.82-2.03,6.71-4.99l7.08-23.55h3.57l-5.9,19.51c-.64,2.12-.24,4.42,1.08,6.2s3.41,2.83,5.62,2.83h17.14c3.08,0,5.81-2.02,6.7-4.97l7.16-23.57h8.95l-5.92,19.5c-.64,2.12-.24,4.42,1.08,6.21,1.32,1.78,3.41,2.83,5.63,2.83h48.35c1.37,0,2.65-.41,3.75-1.11,1.11.71,2.42,1.11,3.78,1.11h17.14c3.09,0,5.81-2.02,6.71-4.98l1.37-4.55,2.25,5.25c1.1,2.57,3.64,4.25,6.44,4.25h17.18c.75,0,1.48-.13,2.18-.36.73.25,1.49.39,2.28.39h17.14c3.09,0,5.81-2.02,6.71-4.98l.37-1.21c.14,1.2.59,2.36,1.33,3.36,1.32,1.78,3.41,2.83,5.62,2.83h17.14c1.37,0,2.67-.42,3.77-1.12,1.12.72,2.43,1.12,3.8,1.12h48.31c1.33,0,2.59-.4,3.67-1.06,1.1.68,2.37,1.06,3.69,1.06h48.31c3.03,0,5.72-1.95,6.66-4.83l5.6-17.13c.47-1.43.46-2.95,0-4.35,1.18-.86,2.07-2.07,2.53-3.47l3.11-9.43c.7-2.13.34-4.48-.98-6.3Z"/>
  <path class="cls-23" d="M138.16,574.47c-3.13,0-6.1-1.35-8.15-3.72-2.08-2.38-2.99-5.56-2.5-8.7l9.75-62.11h-18.72l-10.37,65.45c-.83,5.25-5.3,9.07-10.64,9.07h-49.49c-3.12,0-6.08-1.35-8.13-3.7-2.08-2.39-3-5.56-2.51-8.69l23.24-148.02c-2.78-.51-5.28-2.09-6.92-4.45-2.06-2.97-2.49-6.73-1.17-10.06l12.16-30.96c1.64-4.15,5.58-6.83,10.03-6.83h142.69c3.13,0,6.1,1.35,8.15,3.72,2.07,2.39,2.98,5.55,2.5,8.67l-29.77,191.24c-.81,5.27-5.29,9.1-10.64,9.1h-49.49ZM145.94,444.4l4.56-29.25h-18.71l-4.56,29.25h18.71Z"/>
  <path class="cls-17" d="M138.16,565.5c-.53,0-1.02-.23-1.37-.62s-.49-.92-.41-1.43l11.37-72.47h-36.88l-11.57,73.02c-.14.87-.89,1.5-1.78,1.5h-49.49c-.53,0-1.02-.23-1.37-.62s-.49-.92-.41-1.43l24.84-158.19h-8.53c-.59,0-1.15-.29-1.49-.77-.34-.48-.41-1.1-.19-1.65l12.17-30.98c.27-.68.94-1.14,1.68-1.14h142.69c.53,0,1.02.23,1.37.62s.49.92.41,1.43l-29.77,191.22c-.13.87-.89,1.51-1.78,1.51h-49.49ZM153.63,453.38l7.36-47.2h-36.87l-7.36,47.2h36.87Z"/>
  <path class="cls-6" d="M110.55,490.29l-11.78,75.21h-49.35l25.09-161.72h-10.6l12.13-31.26h142.29l-29.68,192.98h-49.35l11.66-75.21h-40.4ZM123.74,404.71l-7.89,51.22h40.4l7.89-51.22h-40.4Z"/>
  <path class="cls-23" d="M209.39,574.47c-3.13,0-6.1-1.35-8.15-3.72-2.08-2.38-2.99-5.56-2.5-8.7l23.24-148.15c-2.79-.51-5.3-2.1-6.94-4.48-2.03-2.9-2.47-6.66-1.16-10.01l12.05-30.82c1.59-4.09,5.63-6.84,10.04-6.84h142.81c3.13,0,6.1,1.35,8.15,3.72,2.07,2.39,2.98,5.55,2.5,8.67l-18.07,116.55c-.82,5.28-5.3,9.11-10.65,9.11h-6.99l13.73,61.43c.72,3.22-.06,6.53-2.13,9.1-2.08,2.55-5.13,4-8.38,4h-49.61c-5.02,0-9.44-3.55-10.52-8.44l-14.67-66.09h-2.33l-10.27,65.58c-.83,5.27-5.31,9.09-10.64,9.09h-49.49ZM307.3,444.25l4.55-29.09h-18.82l-4.55,29.09h18.82Z"/>
  <path class="cls-12" d="M209.39,565.5c-.53,0-1.02-.23-1.37-.62s-.49-.92-.41-1.43l24.84-158.34h-8.53c-.59,0-1.15-.29-1.48-.77-.34-.48-.41-1.1-.19-1.65l12.05-30.82c.27-.69.94-1.14,1.68-1.14h142.81c.52,0,1.02.23,1.37.62s.49.92.41,1.43l-18.07,116.54c-.13.87-.89,1.51-1.78,1.51h-18.19l16.17,72.36c.12.53-.01,1.08-.35,1.5-.34.42-.86.67-1.4.67h-49.61c-.85,0-1.58-.58-1.76-1.4l-16.23-73.13h-17.21l-11.46,73.17c-.14.87-.89,1.51-1.78,1.51h-49.49ZM314.98,453.22l7.36-47.04h-36.99l-7.36,47.04h36.99Z"/>
  <path class="cls-6" d="M259.67,565.5h-49.35l25.09-161.87h-10.6l12.01-31.11h142.41l-18.02,117.61h-20.38l16.61,75.21h-49.47l-16.49-75.21h-20.14l-11.66,75.36ZM317.15,455.78l7.89-51.07h-40.52l-7.89,51.07h40.52Z"/>
  <path class="cls-23" d="M458.04,574.47c-3.13,0-6.1-1.35-8.15-3.72-2.08-2.38-2.99-5.56-2.5-8.7l9.75-62.11h-18.72l-10.37,65.45c-.83,5.25-5.3,9.07-10.64,9.07h-49.5c-3.13,0-6.1-1.35-8.15-3.72-2.06-2.36-2.99-5.53-2.5-8.67l23.24-148.02c-2.78-.51-5.28-2.09-6.92-4.45-2.05-2.97-2.49-6.72-1.18-10.06l12.17-30.97c1.63-4.15,5.56-6.83,10.03-6.83h142.69c3.14,0,6.12,1.36,8.16,3.74,2.06,2.36,2.97,5.54,2.48,8.68l-29.77,191.21c-.82,5.27-5.3,9.1-10.65,9.1h-49.49ZM465.82,444.4l4.56-29.25h-18.71l-4.56,29.25h18.71Z"/>
  <path class="cls-4" d="M458.04,565.5c-.53,0-1.02-.23-1.37-.62s-.49-.92-.41-1.43l11.37-72.47h-36.88l-11.57,73.02c-.14.87-.89,1.5-1.78,1.5h-49.49c-.53,0-1.02-.23-1.37-.62s-.49-.92-.41-1.43l24.84-158.19h-8.53c-.59,0-1.15-.29-1.49-.77-.34-.48-.41-1.1-.19-1.65l12.17-30.97c.27-.68.94-1.14,1.68-1.14h142.69c.53,0,1.02.23,1.37.62.34.39.49.92.41,1.43l-29.77,191.22c-.14.87-.89,1.51-1.78,1.51h-49.49ZM473.5,453.38l7.36-47.2h-36.87l-7.36,47.2h36.87Z"/>
  <path class="cls-6" d="M429.52,490.29l-11.78,75.21h-49.35l25.09-161.72h-10.6l12.13-31.26h142.29l-29.68,192.98h-49.35l11.66-75.21h-40.4ZM442.71,404.71l-7.89,51.22h40.4l7.89-51.22h-40.4Z"/>
  <g>
    <path class="cls-16" d="M60.97,616.49h-17.34l8.77-29.1h-3.73l4.22-5.59h13.49v-.03h9.68l1.24,17.16,8.24-17.16,25.58.03-10.59,34.69h-17.3l7.9-26.18-12.54,26.18h-9.6l-1.57-21.28-6.46,21.28Z"/>
    <path class="cls-16" d="M117,587.45h-3.72l4.22-5.65h50.03l-10.43,34.69h-48.92l8.81-29.04ZM141.5,610.68l6.99-23.06h-14.19l-6.99,23.06h14.19Z"/>
    <path class="cls-16" d="M175.48,616.49l8.73-28.88h-15.48l1.7-5.81h49.45l-1.61,5.81h-16.68l-8.77,28.88h-17.34Z"/>
    <path class="cls-16" d="M223.39,587.59h-3.68l4.17-5.58h49.45l-10.31,34.29h-48.35l8.71-28.7ZM247.61,610.54l6.91-22.79h-14.03l-6.91,22.79h14.03Z"/>
    <path class="cls-16" d="M287.69,616.29h-17.14l8.71-28.76h-3.68l4.17-5.53h49.45l-6.26,20.9h-7.08l5.77,13.36h-17.18l-5.73-13.36h-6.99l-4.05,13.39ZM307.65,596.8l2.74-9.07h-14.07l-2.74,9.07h14.07Z"/>
    <path class="cls-16" d="M347.29,602.9l-4.05,13.39h-17.14l8.71-28.76h-3.68l4.17-5.53h18.37l-4.54,14.79h14.03l4.46-14.79h17.14l-10.35,34.29h-17.14l4.05-13.39h-14.03Z"/>
    <path class="cls-16" d="M414.9,610.54l8.63-28.54h17.1l-10.35,34.29h-48.31l8.71-28.73h-3.68l4.17-5.55h18.32l-8.67,28.54h14.07Z"/>
    <path class="cls-16" d="M494.08,591.33l-12.43,7.84h9.9l-5.6,17.13h-48.31l9.33-28.84h-3.68l4.21-5.55h49.7l-3.11,9.43ZM469.22,610.74l2.45-7.81h-11.21l-2.45,7.81h11.21ZM464.8,596.77l14.28-9.1-13.58.03-2.86,9.07h2.17Z"/>
  </g>
  <g class="cls-29">
    <path class="cls-2" d="M60.97,616.49h-17.34l8.77-29.1h-3.73l4.22-5.59h13.49v-.03h9.68l1.24,17.16,8.24-17.16,25.58.03-10.59,34.69h-17.3l7.9-26.18-12.54,26.18h-9.6l-1.57-21.28-6.46,21.28Z"/>
    <path class="cls-20" d="M117,587.45h-3.72l4.22-5.65h50.03l-10.43,34.69h-48.92l8.81-29.04ZM141.5,610.68l6.99-23.06h-14.19l-6.99,23.06h14.19Z"/>
    <path class="cls-22" d="M175.48,616.49l8.73-28.88h-15.48l1.7-5.81h49.45l-1.61,5.81h-16.68l-8.77,28.88h-17.34Z"/>
    <path class="cls-28" d="M223.39,587.59h-3.68l4.17-5.58h49.45l-10.31,34.29h-48.35l8.71-28.7ZM247.61,610.54l6.91-22.79h-14.03l-6.91,22.79h14.03Z"/>
    <path class="cls-11" d="M287.69,616.29h-17.14l8.71-28.76h-3.68l4.17-5.53h49.45l-6.26,20.9h-7.08l5.77,13.36h-17.18l-5.73-13.36h-6.99l-4.05,13.39ZM307.65,596.8l2.74-9.07h-14.07l-2.74,9.07h14.07Z"/>
    <path class="cls-5" d="M347.29,602.9l-4.05,13.39h-17.14l8.71-28.76h-3.68l4.17-5.53h18.37l-4.54,14.79h14.03l4.46-14.79h17.14l-10.35,34.29h-17.14l4.05-13.39h-14.03Z"/>
    <path class="cls-21" d="M414.9,610.54l8.63-28.54h17.1l-10.35,34.29h-48.31l8.71-28.73h-3.68l4.17-5.55h18.32l-8.67,28.54h14.07Z"/>
    <path class="cls-26" d="M494.08,591.33l-12.43,7.84h9.9l-5.6,17.13h-48.31l9.33-28.84h-3.68l4.21-5.55h49.7l-3.11,9.43ZM469.22,610.74l2.45-7.81h-11.21l-2.45,7.81h11.21ZM464.8,596.77l14.28-9.1-13.58.03-2.86,9.07h2.17Z"/>
  </g>
  <path class="cls-7" d="M402.6,281.45c-.89,0-1.77-.11-2.63-.32-.86.21-1.74.32-2.62.32h-34.48c-.92,0-1.83-.11-2.71-.34-.88.22-1.78.34-2.69.34h-12.23c-1.74,0-3.44-.41-4.99-1.2-1.54.79-3.26,1.2-5.03,1.2h-12.23c-.55,0-1.11-.04-1.66-.13-.51.07-1.02.11-1.52.11h-12.26c-2.12,0-4.18-.62-5.95-1.75-1.77,1.15-3.85,1.77-6.02,1.77h-12.23c-.91,0-1.82-.11-2.7-.33-.87.22-1.77.33-2.68.33h-34.51c-3.24,0-6.34-1.45-8.41-3.91-2.04,2.45-5.08,3.91-8.43,3.91h-12.23c-2.32,0-4.6-.75-6.47-2.11-1.87,1.37-4.11,2.11-6.5,2.11h-34.51c-.92,0-1.83-.11-2.71-.34-.88.22-1.78.34-2.69.34h-12.2c-.55,0-1.1-.04-1.64-.12-.54.08-1.09.12-1.63.12h-6.77c-.96,0-1.91-.12-2.83-.37-.92.24-1.87.37-2.83.37h-12.23c-3.46,0-6.77-1.66-8.83-4.44-2.06-2.78-2.7-6.42-1.7-9.73l3.95-13.1c-1.14-2.69-1.16-5.67-.08-8.34-1.09-.74-2.08-1.63-2.96-2.64-2.85-3.33-4.1-7.72-3.44-12.05l12.02-77.48c-.55-.58-1.05-1.2-1.5-1.86-2.8-4.08-3.4-9.28-1.6-13.91l6.76-17.41c2.26-5.82,7.75-9.57,13.98-9.57h79.28c1.73,0,3.5.32,5.16.93,1.65-.61,3.42-.93,5.15-.93h79.34c1.49,0,2.96.22,4.38.66,1.43-.44,2.91-.66,4.41-.66h79.28c4.39,0,8.55,1.91,11.4,5.25,2.85,3.31,4.1,7.71,3.42,12.05l-16.42,106.76h11.37c.77,0,1.53.08,2.28.24.86-.21,1.74-.32,2.62-.32h35.47c3.52,0,6.85,1.7,8.91,4.55,2.06,2.85,2.64,6.55,1.53,9.89l-2.22,6.73c-.31.93-.73,1.81-1.26,2.62-.04,1-.22,1.99-.54,2.95l-4,12.23c-1.49,4.53-5.69,7.58-10.46,7.58h-34.48Z"/>
  <path class="cls-23" d="M452.4,240.62c-1.69-2.33-4.41-3.73-7.29-3.73h-35.47c-.88,0-1.75.13-2.59.39-.76-.2-1.53-.31-2.32-.31h-12.2c-.56,0-1.11.05-1.64.15.16-.56.29-1.13.38-1.71l16.54-107.5c.58-3.76-.5-7.57-2.97-10.44-2.47-2.89-6.07-4.55-9.88-4.55h-79.28c-1.52,0-3,.26-4.41.77-1.42-.51-2.89-.77-4.38-.77h-79.34c-1.75,0-3.51.37-5.15,1.08-1.64-.71-3.4-1.08-5.16-1.08h-79.28c-5.4,0-10.16,3.26-12.12,8.3l-6.76,17.41c-1.56,4.01-1.04,8.52,1.39,12.05.57.84,1.24,1.6,1.98,2.28l-12.18,78.5c-.58,3.75.51,7.56,2.98,10.44,1.15,1.34,2.53,2.41,4.08,3.18-1.71,2.66-1.9,6-.47,8.87.01.03.03.06.04.09l-4.17,13.83c-.82,2.71-.3,5.69,1.39,7.96,1.69,2.28,4.39,3.63,7.23,3.63h12.23c.97,0,1.92-.15,2.83-.46.91.3,1.86.46,2.83.46h6.77c.55,0,1.1-.05,1.63-.15.54.1,1.09.15,1.64.15h12.2c.92,0,1.82-.14,2.69-.42.88.28,1.78.42,2.71.42h34.51c2.51,0,4.83-1.02,6.49-2.75,1.68,1.74,4.03,2.75,6.47,2.75h12.23c3.79,0,7.11-2.32,8.42-5.83.29.78.69,1.52,1.19,2.19,1.69,2.28,4.39,3.64,7.23,3.64h34.51c.91,0,1.81-.14,2.67-.41.87.28,1.78.41,2.7.41h12.23c2.27,0,4.39-.82,6.01-2.28,1.63,1.43,3.75,2.26,5.96,2.26h12.26c.51,0,1.02-.05,1.53-.14.55.1,1.1.16,1.65.16h12.23c1.82,0,3.56-.53,5.02-1.52,1.47.98,3.22,1.52,4.99,1.52h12.23c.92,0,1.82-.14,2.69-.42.88.28,1.78.42,2.71.42h34.48c.89,0,1.77-.13,2.62-.4.85.26,1.74.4,2.63.4h34.48c3.9,0,7.34-2.49,8.55-6.2l4-12.23c.32-.97.47-1.97.45-2.97.59-.78,1.04-1.65,1.36-2.6l2.22-6.73c.9-2.73.43-5.76-1.26-8.09ZM252.78,236.98c.14-.51.26-1.03.34-1.55l.5-3.22.86,3.93c.06.28.13.57.22.84h-1.92Z"/>
  <path class="cls-23" d="M449.16,242.97c-.94-1.3-2.45-2.07-4.05-2.07h-35.47c-.9,0-1.76.25-2.52.69-.72-.39-1.54-.61-2.38-.61h-12.2c-2.2,0-4.15,1.44-4.79,3.55l-.26.87c-.1-.86-.42-1.68-.95-2.4-.94-1.27-2.43-2.02-4.02-2.02h-13.08c-.81,0-1.59.2-2.29.56-.7-.36-1.48-.56-2.29-.56h-12.23c-2.21,0-4.15,1.45-4.79,3.56l-.22.73c-.12-.81-.43-1.58-.93-2.26-.94-1.28-2.44-2.03-4.02-2.03h-13.11c-.76,0-1.51.18-2.18.5-.67-.32-1.41-.5-2.17-.5h-35.3c-.81,0-1.59.2-2.29.56-.7-.36-1.48-.56-2.29-.56h-35.3c-.76,0-1.49.18-2.16.5-.67-.32-1.4-.5-2.16-.5h-34.89c-.35,0-.68.05-1.01.11-.34-.07-.68-.11-1.04-.11h-35.3c-.79,0-1.56.19-2.25.53-.69-.35-1.45-.53-2.24-.53,0,0-18.05-.02-18.05-.02-1.26,0-2.44.47-3.34,1.28-.89-.8-2.06-1.28-3.34-1.28h-6.83c-.15,0-.3,0-.44.02h-9.07c-1.57,0-3.05.74-3.99,1.99l-2.98,3.95c-1.14,1.51-1.33,3.54-.48,5.24.22.45.51.85.84,1.21l-4.72,15.65c-.46,1.51-.17,3.16.77,4.42.94,1.27,2.43,2.02,4.01,2.02h12.23c1.04,0,2.02-.32,2.83-.88.81.56,1.78.88,2.83.88h6.77c.57,0,1.12-.1,1.64-.27.52.18,1.07.27,1.63.27h12.2c.98,0,1.9-.3,2.69-.8.8.52,1.74.8,2.71.8h34.51c2.21,0,4.15-1.45,4.79-3.56l5.05-16.81h2.55l-4.21,13.92c-.46,1.51-.17,3.16.77,4.43s2.43,2.02,4.01,2.02h12.23c2.2,0,4.14-1.44,4.78-3.55l5.11-16.82h6.39l-4.22,13.92c-.46,1.52-.17,3.16.77,4.43.94,1.27,2.43,2.02,4.02,2.02h34.51c.98,0,1.89-.3,2.67-.79.8.51,1.73.79,2.7.79h12.23c2.2,0,4.15-1.44,4.79-3.55l.98-3.25,1.61,3.75c.79,1.84,2.6,3.03,4.6,3.03h12.26c.54,0,1.06-.09,1.55-.26.52.18,1.07.28,1.63.28h12.23c2.2,0,4.15-1.44,4.79-3.55l.26-.87c.1.86.42,1.69.95,2.4.94,1.27,2.43,2.02,4.01,2.02h12.23c.98,0,1.9-.3,2.69-.8.8.52,1.74.8,2.71.8h34.48c.95,0,1.85-.28,2.62-.76.78.49,1.69.76,2.64.76h34.48c2.16,0,4.08-1.39,4.75-3.45l4-12.23c.33-1.02.33-2.11,0-3.11.84-.61,1.48-1.48,1.81-2.48l2.22-6.73c.5-1.52.24-3.2-.7-4.5Z"/>
  <path class="cls-8" d="M172.58,233.44c-.29,0-.57-.13-.76-.35s-.27-.51-.23-.8l6.34-40.38h-20.55l-6.45,40.68c-.08.48-.5.84-.99.84h-27.58c-.29,0-.57-.13-.76-.35s-.27-.51-.23-.8l13.84-88.14h-4.75c-.33,0-.64-.16-.83-.43-.19-.27-.23-.61-.11-.92l6.78-17.26c.15-.38.52-.63.93-.63h79.5c.29,0,.57.13.76.35s.27.51.23.8l-16.58,106.54c-.07.48-.5.84-.99.84h-27.58ZM181.19,170.97l4.1-26.3h-20.54l-4.1,26.3h20.54Z"/>
  <path class="cls-6" d="M157.19,191.53l-6.56,41.9h-27.5l13.98-90.1h-5.91l6.76-17.42h79.28l-16.54,107.52h-27.5l6.5-41.9h-22.51ZM164.54,143.85l-4.4,28.54h22.51l4.4-28.54h-22.51Z"/>
  <path class="cls-13" d="M212.26,233.44c-.29,0-.57-.13-.76-.35s-.27-.51-.23-.8l13.84-88.22h-4.75c-.33,0-.64-.16-.83-.43-.19-.27-.23-.61-.11-.92l6.71-17.17c.15-.38.52-.63.94-.63h79.57c.29,0,.57.13.76.35s.27.51.23.8l-10.07,64.93c-.07.48-.5.84-.99.84h-10.14l9.01,40.32c.07.29,0,.6-.2.83-.19.23-.48.37-.78.37h-27.64c-.47,0-.88-.32-.98-.78l-9.04-40.74h-9.59l-6.38,40.77c-.08.48-.5.84-.99.84h-27.58ZM271.09,170.88l4.1-26.21h-20.61l-4.1,26.21h20.61Z"/>
  <path class="cls-6" d="M240.27,233.44h-27.5l13.98-90.19h-5.91l6.69-17.33h79.34l-10.04,65.53h-11.35l9.25,41.9h-27.56l-9.19-41.9h-11.22l-6.5,41.99ZM272.3,172.3l4.4-28.45h-22.58l-4.4,28.45h22.58Z"/>
  <path class="cls-3" d="M350.79,233.44c-.29,0-.57-.13-.76-.35s-.27-.51-.23-.8l6.34-40.38h-20.55l-6.45,40.68c-.08.48-.5.84-.99.84h-27.58c-.29,0-.57-.13-.76-.35s-.27-.51-.23-.8l13.84-88.14h-4.75c-.33,0-.64-.16-.83-.43-.19-.27-.23-.61-.11-.92l6.78-17.26c.15-.38.52-.63.93-.63h79.5c.29,0,.57.13.76.35.19.22.28.51.23.8l-16.58,106.54c-.08.48-.5.84-.99.84h-27.57ZM359.41,170.97l4.1-26.3h-20.54l-4.1,26.3h20.54Z"/>
  <path class="cls-6" d="M334.91,191.53l-6.56,41.9h-27.5l13.98-90.1h-5.91l6.76-17.42h79.28l-16.54,107.52h-27.5l6.5-41.9h-22.51ZM342.26,143.85l-4.4,28.54h22.51l4.4-28.54h-22.51Z"/>
  <g>
    <path class="cls-24" d="M133.28,270.56h-12.38l6.26-20.77h-2.66l3.01-3.99h9.63v-.02h6.91l.89,12.25,5.88-12.25,18.26.02-7.56,24.76h-12.35l5.64-18.68-8.95,18.68h-6.85l-1.12-15.19-4.61,15.19Z"/>
    <path class="cls-24" d="M173.28,249.84h-2.66l3.01-4.03h35.71l-7.44,24.76h-34.92l6.29-20.73ZM190.76,266.42l4.99-16.46h-10.13l-4.99,16.46h10.13Z"/>
    <path class="cls-24" d="M215.02,270.56l6.23-20.61h-11.05l1.21-4.15h35.3l-1.15,4.15h-11.9l-6.26,20.61h-12.38Z"/>
    <path class="cls-24" d="M249.22,249.93h-2.63l2.98-3.98h35.3l-7.36,24.47h-34.51l6.22-20.49ZM266.5,266.32l4.93-16.27h-10.01l-4.93,16.27h10.01Z"/>
    <path class="cls-24" d="M295.11,270.42h-12.23l6.22-20.53h-2.63l2.98-3.95h35.3l-4.47,14.92h-5.05l4.12,9.54h-12.26l-4.09-9.54h-4.99l-2.89,9.56ZM309.36,256.51l1.96-6.48h-10.04l-1.96,6.48h10.04Z"/>
    <path class="cls-24" d="M337.65,260.86l-2.89,9.56h-12.23l6.22-20.53h-2.63l2.98-3.95h13.11l-3.24,10.56h10.01l3.18-10.56h12.23l-7.39,24.47h-12.23l2.89-9.56h-10.01Z"/>
    <path class="cls-24" d="M385.91,266.32l6.16-20.37h12.2l-7.39,24.47h-34.48l6.22-20.51h-2.63l2.98-3.96h13.08l-6.19,20.37h10.04Z"/>
    <path class="cls-24" d="M442.43,252.6l-8.88,5.59h7.06l-4,12.23h-34.48l6.66-20.59h-2.63l3.01-3.96h35.47l-2.22,6.73ZM424.68,266.46l1.75-5.57h-8l-1.75,5.57h8ZM421.53,256.49l10.19-6.5-9.69.02-2.04,6.48h1.55Z"/>
  </g>
  <g class="cls-29">
    <path class="cls-25" d="M133.28,270.56h-12.38l6.26-20.77h-2.66l3.01-3.99h9.63v-.02h6.91l.89,12.25,5.88-12.25,18.26.02-7.56,24.76h-12.35l5.64-18.68-8.95,18.68h-6.85l-1.12-15.19-4.61,15.19Z"/>
    <path class="cls-27" d="M173.28,249.84h-2.66l3.01-4.03h35.71l-7.44,24.76h-34.92l6.29-20.73ZM190.76,266.42l4.99-16.46h-10.13l-4.99,16.46h10.13Z"/>
    <path class="cls-10" d="M215.02,270.56l6.23-20.61h-11.05l1.21-4.15h35.3l-1.15,4.15h-11.9l-6.26,20.61h-12.38Z"/>
    <path class="cls-1" d="M249.22,249.93h-2.63l2.98-3.98h35.3l-7.36,24.47h-34.51l6.22-20.49ZM266.5,266.32l4.93-16.27h-10.01l-4.93,16.27h10.01Z"/>
    <path class="cls-14" d="M295.11,270.42h-12.23l6.22-20.53h-2.63l2.98-3.95h35.3l-4.47,14.92h-5.05l4.12,9.54h-12.26l-4.09-9.54h-4.99l-2.89,9.56ZM309.36,256.51l1.96-6.48h-10.04l-1.96,6.48h10.04Z"/>
    <path class="cls-19" d="M337.65,260.86l-2.89,9.56h-12.23l6.22-20.53h-2.63l2.98-3.95h13.11l-3.24,10.56h10.01l3.18-10.56h12.23l-7.39,24.47h-12.23l2.89-9.56h-10.01Z"/>
    <path class="cls-9" d="M385.91,266.32l6.16-20.37h12.2l-7.39,24.47h-34.48l6.22-20.51h-2.63l2.98-3.96h13.08l-6.19,20.37h10.04Z"/>
    <path class="cls-15" d="M442.43,252.6l-8.88,5.59h7.06l-4,12.23h-34.48l6.66-20.59h-2.63l3.01-3.96h35.47l-2.22,6.73ZM424.68,266.46l1.75-5.57h-8l-1.75,5.57h8ZM421.53,256.49l10.19-6.5-9.69.02-2.04,6.48h1.55Z"/>
  </g>
  <image width="960" height="908" transform="translate(487.59 80.72) rotate(67.44) scale(.16)" xlink:href="../400 vectors/Vector/MotoPaborito free Vectors/21209143_1991454614416742_1799497941_n.png"/>
</svg>